<svg xmlns="http://www.w3.org/2000/svg" xmlns:xlink="http://www.w3.org/1999/xlink" contentStyleType="text/css" data-diagram-type="DESCRIPTION" height="365px" preserveAspectRatio="none" style="width:763px;height:365px;background:#003153;" version="1.1" viewBox="0 0 763 365" width="763px" zoomAndPan="magnify"><?plantuml 1.2026.3beta6?><defs/><g><rect fill="#003153" height="365" style="stroke:none;stroke-width:1;" width="763" x="0" y="0"/><!--cluster Frontend--><g class="cluster" data-qualified-name="Frontend" data-source-line="2" id="ent0002"><path d="M287.5,11 L360.7285,11 A3.75,3.75 0 0 1 363.2285,13.5 L370.2285,33.2969 L745.5,33.2969 A2.5,2.5 0 0 1 748,35.7969 L748,105.8 A2.5,2.5 0 0 1 745.5,108.3 L287.5,108.3 A2.5,2.5 0 0 1 285,105.8 L285,13.5 A2.5,2.5 0 0 1 287.5,11" fill="#003153" style="stroke:#D9D3D0;stroke-width:1;"/><line style="stroke:#D9D3D0;stroke-width:1;" x1="285" x2="370.2285" y1="33.2969" y2="33.2969"/><text fill="#D9D3D0" font-family="Verdana" font-size="14" font-weight="700" lengthAdjust="spacing" textLength="72.2285" x="289" y="25.9951">Frontend</text></g><!--cluster API--><g class="cluster" data-qualified-name="API" data-source-line="6" id="ent0005"><path d="M13.5,132.3 L40.8047,132.3 A3.75,3.75 0 0 1 43.3047,134.8 L50.3047,154.5969 L519.5,154.5969 A2.5,2.5 0 0 1 522,157.0969 L522,227.09 A2.5,2.5 0 0 1 519.5,229.59 L13.5,229.59 A2.5,2.5 0 0 1 11,227.09 L11,134.8 A2.5,2.5 0 0 1 13.5,132.3" fill="#003153" style="stroke:#D9D3D0;stroke-width:1;"/><line style="stroke:#D9D3D0;stroke-width:1;" x1="11" x2="50.3047" y1="154.5969" y2="154.5969"/><text fill="#D9D3D0" font-family="Verdana" font-size="14" font-weight="700" lengthAdjust="spacing" textLength="26.3047" x="15" y="147.2951">API</text></g><!--cluster Storage--><g class="cluster" data-qualified-name="Storage" data-source-line="10" id="ent0008"><path d="M64.5,253.59 L127.7617,253.59 A3.75,3.75 0 0 1 130.2617,256.09 L137.2617,275.8869 L425.5,275.8869 A2.5,2.5 0 0 1 428,278.3869 L428,348.39 A2.5,2.5 0 0 1 425.5,350.89 L64.5,350.89 A2.5,2.5 0 0 1 62,348.39 L62,256.09 A2.5,2.5 0 0 1 64.5,253.59" fill="#003153" style="stroke:#D9D3D0;stroke-width:1;"/><line style="stroke:#D9D3D0;stroke-width:1;" x1="62" x2="137.2617" y1="275.8869" y2="275.8869"/><text fill="#D9D3D0" font-family="Verdana" font-size="14" font-weight="700" lengthAdjust="spacing" textLength="62.2617" x="66" y="268.5851">Storage</text></g><!--entity Next.js App Router--><g class="entity" data-qualified-name="Frontend.Next.js App Router" data-source-line="3" id="ent0003"><rect fill="#003153" height="46.2969" rx="2.5" ry="2.5" style="stroke:#D9D3D0;stroke-width:1;" width="171.7695" x="301.12" y="46"/><rect fill="#003153" height="10" style="stroke:#D9D3D0;stroke-width:1;" width="15" x="452.8895" y="51"/><rect fill="#003153" height="2" style="stroke:#D9D3D0;stroke-width:1;" width="4" x="450.8895" y="53"/><rect fill="#003153" height="2" style="stroke:#D9D3D0;stroke-width:1;" width="4" x="450.8895" y="57"/><text fill="#D9D3D0" font-family="Verdana" font-size="14" lengthAdjust="spacing" textLength="131.7695" x="316.12" y="78.9951">Next.js App Router</text></g><!--entity React Server Components--><g class="entity" data-qualified-name="Frontend.React Server Components" data-source-line="4" id="ent0004"><rect fill="#003153" height="46.2969" rx="2.5" ry="2.5" style="stroke:#D9D3D0;stroke-width:1;" width="223.4902" x="508.25" y="46"/><rect fill="#003153" height="10" style="stroke:#D9D3D0;stroke-width:1;" width="15" x="711.7402" y="51"/><rect fill="#003153" height="2" style="stroke:#D9D3D0;stroke-width:1;" width="4" x="709.7402" y="53"/><rect fill="#003153" height="2" style="stroke:#D9D3D0;stroke-width:1;" width="4" x="709.7402" y="57"/><text fill="#D9D3D0" font-family="Verdana" font-size="14" lengthAdjust="spacing" textLength="183.4902" x="523.25" y="78.9951">React Server Components</text></g><!--entity Edge Function: augment-post--><g class="entity" data-qualified-name="API.Edge Function. augment-post" data-source-line="7" id="ent0006"><rect fill="#003153" height="46.2969" rx="2.5" ry="2.5" style="stroke:#D9D3D0;stroke-width:1;" width="247.4023" x="27.3" y="167.3"/><rect fill="#003153" height="10" style="stroke:#D9D3D0;stroke-width:1;" width="15" x="254.7023" y="172.3"/><rect fill="#003153" height="2" style="stroke:#D9D3D0;stroke-width:1;" width="4" x="252.7023" y="174.3"/><rect fill="#003153" height="2" style="stroke:#D9D3D0;stroke-width:1;" width="4" x="252.7023" y="178.3"/><text fill="#D9D3D0" font-family="Verdana" font-size="14" lengthAdjust="spacing" textLength="207.4023" x="42.3" y="200.2951">Edge Function: augment-post</text></g><!--entity Edge Function: search--><g class="entity" data-qualified-name="API.Edge Function. search" data-source-line="8" id="ent0007"><rect fill="#003153" height="46.2969" rx="2.5" ry="2.5" style="stroke:#D9D3D0;stroke-width:1;" width="195.9756" x="310.01" y="167.3"/><rect fill="#003153" height="10" style="stroke:#D9D3D0;stroke-width:1;" width="15" x="485.9856" y="172.3"/><rect fill="#003153" height="2" style="stroke:#D9D3D0;stroke-width:1;" width="4" x="483.9856" y="174.3"/><rect fill="#003153" height="2" style="stroke:#D9D3D0;stroke-width:1;" width="4" x="483.9856" y="178.3"/><text fill="#D9D3D0" font-family="Verdana" font-size="14" lengthAdjust="spacing" textLength="155.9756" x="325.01" y="200.2951">Edge Function: search</text></g><!--entity PG--><g class="entity" data-qualified-name="Storage.PG" data-source-line="11" id="ent0009"><path d="M258.31,299.09 C258.31,289.09 335.0048,289.09 335.0048,289.09 C335.0048,289.09 411.6996,289.09 411.6996,299.09 L411.6996,324.3869 C411.6996,334.3869 335.0048,334.3869 335.0048,334.3869 C335.0048,334.3869 258.31,334.3869 258.31,324.3869 L258.31,299.09" fill="#003153" style="stroke:#D9D3D0;stroke-width:1;"/><path d="M258.31,299.09 C258.31,309.09 335.0048,309.09 335.0048,309.09 C335.0048,309.09 411.6996,309.09 411.6996,299.09" fill="none" style="stroke:#D9D3D0;stroke-width:1;"/><text fill="#D9D3D0" font-family="Verdana" font-size="14" lengthAdjust="spacing" textLength="133.3896" x="268.31" y="326.0851">Supabase Postgres</text></g><!--entity CDN--><g class="entity" data-qualified-name="Storage.CDN" data-source-line="12" id="ent0010"><path d="M87.6842,297.9584 C90.7803,293.1324 96.5366,292.2585 99.5801,298.0174 C102.6847,289.7785 107.8193,289.8992 113.5151,295.3868 C117.7881,289.058 122.6728,288.6221 127.1025,295.2222 C130.1208,288.634 135.7832,287.5581 139.9741,294.0701 C143.6812,288.2215 148.7379,288.2345 151.9004,294.6017 C155.7269,288.373 160.5614,287.7351 164.9454,294.0206 C169.6904,288.3938 174.7493,290.6731 177.3548,296.3661 C180.5084,289.447 186.6135,290.5685 190.1346,295.9854 C194.9338,289.3094 200.4616,290.5022 203.8875,297.379 C208.0296,290.9231 212.1619,291.8587 216.4616,297.2112 C225.0901,298.594 227.578,304.971 223.2486,312.2152 C230.1244,321.4226 224.8045,326.9574 215.736,329.0492 C212.2982,335.1 208.0606,335.3072 203.7846,329.9254 C199.7847,336.0372 195.9556,336.3458 191.9064,329.9723 C187.5911,337.6014 182.6179,337.8334 177.5059,330.7522 C174.9621,338.0083 170.3236,338.4731 165.0582,333.5291 C161.0753,340.6618 156.1004,340.775 152.0069,333.6302 C147.3314,339.0685 142.6732,339.9758 139.0709,332.551 C134.2568,338.7853 129.0105,337.4415 125.8572,330.8412 C120.5573,337.4508 116.6027,335.6618 112.4082,329.6622 C109.1069,335.0044 104.2176,333.9972 101.2979,329.2422 C97.1959,335.922 90.0506,335.2572 86.5213,328.6073 C78.324,324.6911 76.6243,319.4646 82.9853,312.3768 C77.5195,305.9785 79.7903,300.0027 87.6842,297.9584" fill="#003153" style="stroke:#D9D3D0;stroke-width:1;"/><text fill="#D9D3D0" font-family="Verdana" font-size="14" lengthAdjust="spacing" textLength="115.1514" x="93.42" y="316.5851">S3 + CloudFront</text></g><!--link Next.js App Router to Edge Function: search--><g class="link" data-entity-1="ent0003" data-entity-2="ent0007" data-link-type="dependency" data-source-line="15" id="lnk11"><path d="M390.95,92.59 C394.7,113.92 399.2797,139.9009 403.0297,161.2009" fill="none" id="Next.js App Router-to-Edge Function: search" style="stroke:#D9D3D0;stroke-width:1;"/><polygon fill="#D9D3D0" points="404.07,167.11,406.4489,157.5528,403.2031,162.1857,398.5701,158.9399,404.07,167.11" style="stroke:#D9D3D0;stroke-width:1;"/></g><!--link Edge Function: augment-post to PG--><g class="link" data-entity-1="ent0006" data-entity-2="ent0009" data-link-type="dependency" data-source-line="16" id="lnk12"><path d="M189.88,214.09 C205.86,223.59 224.46,234.9 241,245.59 C262.51,259.5 281.3118,272.4647 299.5318,285.3547" fill="none" id="Edge Function: augment-post-to-PG" style="stroke:#D9D3D0;stroke-width:1;"/><polygon fill="#D9D3D0" points="304.43,288.82,299.3929,280.3567,300.3482,285.9323,294.7726,286.8875,304.43,288.82" style="stroke:#D9D3D0;stroke-width:1;"/></g><!--link Edge Function: augment-post to CDN--><g class="link" data-entity-1="ent0006" data-entity-2="ent0010" data-link-type="dependency" data-source-line="17" id="lnk13"><path d="M151,213.88 C151,235.21 151,261.11 151,282.4" fill="none" id="Edge Function: augment-post-to-CDN" style="stroke:#D9D3D0;stroke-width:1;"/><polygon fill="#D9D3D0" points="151,288.4,155,279.4,151,283.4,147,279.4,151,288.4" style="stroke:#D9D3D0;stroke-width:1;"/></g><!--link React Server Components to PG--><g class="link" data-entity-1="ent0004" data-entity-2="ent0009" data-link-type="dependency" data-source-line="18" id="lnk14"><path d="M612.39,92.59 C599.29,128.07 569.25,197.22 522,237.59 C490.73,264.32 454.2822,280.1674 417.9022,291.4174" fill="none" id="React Server Components-to-PG" style="stroke:#D9D3D0;stroke-width:1;"/><polygon fill="#D9D3D0" points="412.17,293.19,421.95,294.3526,416.9468,291.7128,419.5865,286.7097,412.17,293.19" style="stroke:#D9D3D0;stroke-width:1;"/></g><?plantuml-src XP0z2y8m48Rt_egpgzJ5pK6G-e5BANMK3cTwr8ys2Sb51F6_czOlX5Op7RadpzsR0U-f9jXLZhGvI0uqYXEM1E7IACaaYn2k0VYpJUZ2ewE5cTQGASTayaSZ8nGC6p9dCX2hMYj9acqUt3wsMRf-YnQ5lrawAVYWv0JGbRNd8wqivvs49JHY_-NRi3A-U3aBPDoXRHfEFwhKwqf3DWIqaAvQJ5JA5PuPmn3Yfcv3jaGyJxm_w4e9KJJjtUbdclQbd_qVQiRtVkHJSmS0?></g></svg>